<?xml version="1.0" standalone="no"?>
<!DOCTYPE svg PUBLIC "-//W3C//DTD SVG 20010904//EN"
 "http://www.w3.org/TR/2001/REC-SVG-20010904/DTD/svg10.dtd">
<svg version="1.0" xmlns="http://www.w3.org/2000/svg"
 width="920.000000pt" height="544.000000pt" viewBox="0 0 920.000000 544.000000"
 preserveAspectRatio="xMidYMid meet">

<g transform="translate(0.000000,544.000000) scale(0.100000,-0.100000)"
fill="#000000" stroke="none">
<path d="M3851 5429 c-266 -31 -575 -169 -866 -387 -156 -116 -220 -174 -252
-229 l-26 -45 6 -166 c4 -92 14 -222 22 -289 9 -67 15 -139 13 -160 -7 -79
-79 187 -125 462 l-9 50 -47 -73 c-70 -108 -131 -225 -175 -337 -65 -165 -66
-171 -36 -257 29 -81 104 -226 172 -333 l45 -70 -84 76 c-46 42 -109 110 -138
152 -30 42 -56 75 -58 73 -8 -7 -23 -123 -33 -255 -14 -178 -2 -288 36 -338
65 -85 310 -310 427 -393 61 -43 67 -50 44 -50 -47 0 -130 22 -211 56 -44 19
-81 32 -83 30 -12 -12 73 -266 126 -376 17 -35 29 -65 27 -67 -2 -2 -41 24
-87 58 -139 103 -264 243 -362 405 -54 90 -84 163 -115 278 -24 93 -27 117
-27 291 0 178 2 196 28 287 52 185 118 317 238 479 50 67 56 78 28 54 -19 -16
-65 -64 -102 -105 -217 -240 -355 -567 -416 -986 -29 -193 -28 -256 4 -310 31
-53 207 -220 387 -367 75 -62 135 -113 133 -115 -1 -1 -56 27 -121 64 -136 75
-253 154 -337 227 -32 27 -61 47 -64 43 -10 -10 57 -207 99 -291 59 -118 121
-207 207 -295 179 -183 396 -271 666 -271 253 1 398 42 655 187 l65 36 -50
-46 c-63 -58 -182 -139 -260 -175 -150 -71 -285 -102 -450 -103 -206 -1 -387
50 -566 159 -35 21 -77 47 -94 57 -19 11 -9 -1 25 -33 150 -140 389 -257 634
-310 198 -43 458 -63 538 -41 52 15 169 146 333 375 100 140 101 141 71 73
-66 -148 -174 -336 -228 -394 -11 -12 -16 -24 -11 -27 4 -3 67 17 138 44 226
85 395 142 402 136 13 -13 -19 -115 -66 -213 -81 -168 -211 -353 -353 -500
-38 -40 -66 -74 -61 -77 32 -19 302 -57 408 -57 64 0 75 3 124 36 65 44 189
161 282 267 38 42 69 74 69 71 0 -16 -78 -147 -147 -247 -41 -60 -73 -111 -70
-113 9 -9 262 38 360 67 140 42 191 70 221 121 29 51 75 166 121 302 31 91 34
97 42 70 4 -16 8 -92 7 -170 l0 -141 85 60 c131 91 381 302 381 321 0 3 -19
10 -42 16 -196 50 -351 125 -451 219 -69 65 -116 136 -100 151 4 5 93 16 196
25 158 15 206 16 294 6 275 -31 343 -123 278 -375 -124 -477 -701 -917 -1385
-1056 -310 -63 -760 -44 -1074 46 -231 66 -433 190 -565 346 -69 82 -88 84
-52 3 98 -221 583 -583 994 -742 170 -66 466 -125 737 -148 94 -8 271 10 317
32 45 21 230 226 373 412 61 79 110 140 110 137 0 -4 -23 -52 -51 -108 -63
-126 -142 -254 -214 -348 -31 -39 -54 -74 -51 -77 10 -11 267 61 386 108 177
70 220 95 249 147 36 67 90 224 121 357 21 88 29 111 31 85 4 -55 -1 -156 -12
-268 -6 -57 -9 -105 -6 -108 9 -9 170 119 266 211 52 49 107 110 123 134 25
40 28 54 28 127 0 74 -41 357 -56 387 -3 7 13 -8 36 -33 38 -41 130 -209 130
-238 0 -7 4 -12 8 -12 15 0 128 248 169 369 l38 114 18 -74 c24 -97 34 -366
18 -477 -35 -239 -167 -505 -333 -673 -182 -184 -381 -287 -688 -354 l-115
-25 120 4 c372 14 759 192 1143 524 34 30 74 74 89 99 l26 45 -6 163 c-3 89
-13 222 -22 294 -9 72 -15 146 -13 164 3 27 9 16 36 -68 28 -85 50 -187 91
-410 l7 -40 52 80 c69 106 163 298 202 414 32 93 32 93 15 145 -28 84 -77 184
-153 310 l-72 118 67 -60 c86 -76 109 -102 166 -180 44 -62 45 -63 51 -35 25
120 38 407 23 498 -8 48 -15 57 -165 206 -86 85 -203 190 -260 232 -89 67
-100 77 -75 77 47 0 144 -27 217 -60 38 -17 71 -28 74 -25 11 11 -72 257 -131
387 l-26 57 30 -18 c71 -43 193 -148 256 -219 86 -98 194 -264 233 -358 60
-145 75 -229 75 -434 0 -157 -4 -198 -22 -272 -44 -174 -125 -337 -246 -502
-71 -95 -40 -75 68 45 226 249 362 569 424 994 27 181 27 247 0 301 -30 62
-217 238 -499 468 -58 47 172 -77 280 -151 52 -36 121 -87 152 -114 31 -27 59
-49 63 -49 19 0 -43 186 -97 295 -141 281 -344 458 -613 537 -100 29 -335 36
-469 14 -160 -27 -248 -61 -471 -186 l-40 -22 35 32 c219 198 456 292 730 292
234 -1 412 -60 660 -219 42 -26 -112 121 -194 186 -218 173 -421 237 -663 212
-264 -29 -534 -136 -690 -275 -80 -72 -194 -211 -253 -311 -136 -232 -196
-302 -280 -330 -92 -31 -204 0 -277 77 -79 82 -176 442 -158 587 15 122 70
216 160 276 164 108 398 108 557 -2 47 -32 88 -111 88 -170 0 -24 4 -43 8 -43
30 0 83 108 89 179 24 258 -241 534 -605 633 -102 28 -288 30 -382 5 -145 -38
-304 -141 -355 -228 l-19 -34 24 18 c56 40 169 88 221 93 l54 6 -50 -30 c-51
-30 -123 -98 -114 -107 3 -2 33 7 67 21 75 30 166 48 201 39 25 -7 24 -8 -22
-26 -119 -47 -268 -174 -365 -311 -104 -147 -163 -317 -195 -558 -16 -118 -46
-231 -70 -264 -13 -18 -16 -18 -75 14 -161 86 -219 223 -209 493 6 182 39 293
133 447 260 430 883 776 1497 831 270 24 655 -14 890 -87 223 -70 421 -203
560 -374 34 -42 37 -43 37 -20 0 41 -69 148 -158 241 -212 224 -628 483 -937
584 -282 92 -738 145 -920 106 -56 -12 -65 -18 -144 -100 -104 -107 -193 -212
-305 -360 -47 -62 -86 -111 -86 -107 0 3 23 52 51 108 63 126 142 254 214 348
31 39 54 74 51 77 -8 8 -273 -62 -361 -96 -44 -17 -118 -50 -165 -74 -83 -41
-86 -44 -117 -107 -40 -80 -85 -215 -112 -335 -11 -49 -23 -99 -25 -110 -7
-26 3 305 10 368 l6 48 -88 -68 c-115 -87 -269 -236 -306 -292 -25 -40 -28
-54 -28 -127 0 -74 41 -357 55 -387 4 -7 -12 8 -35 33 -38 41 -130 210 -130
238 0 7 -4 12 -9 12 -14 0 -128 -253 -168 -372 l-37 -113 -19 75 c-13 53 -20
127 -24 250 -4 153 -2 188 16 279 12 57 31 131 43 165 91 268 281 504 523 648
119 72 270 126 449 164 l111 23 -80 -1 c-44 0 -113 -4 -154 -9z m1234 -1271
c29 -13 33 -38 7 -38 -10 0 -44 14 -77 31 l-60 30 53 -6 c29 -3 64 -11 77 -17z"/>
</g>
</svg>
