<?xml version="1.0" standalone="no"?>
<!DOCTYPE svg PUBLIC "-//W3C//DTD SVG 20010904//EN"
 "http://www.w3.org/TR/2001/REC-SVG-20010904/DTD/svg10.dtd">
<svg version="1.0" xmlns="http://www.w3.org/2000/svg"
 width="900.000000pt" height="512.000000pt" viewBox="0 0 900.000000 512.000000"
 preserveAspectRatio="xMidYMid meet">

<g transform="translate(0.000000,512.000000) scale(0.100000,-0.100000)"
fill="#000000" stroke="none">
<path d="M4305 4650 c-832 -70 -1553 -601 -1870 -1378 -177 -435 -207 -953
-80 -1415 95 -348 274 -665 526 -931 451 -477 1094 -730 1742 -687 800 54
1491 514 1846 1232 260 525 299 1122 110 1684 -156 461 -463 861 -874 1136
-192 128 -483 254 -716 309 -199 47 -480 67 -684 50z m718 -702 c10 -38 -12
-165 -41 -242 -34 -87 -102 -187 -166 -243 -87 -76 -220 -133 -313 -133 l-43
0 0 43 c1 134 67 289 170 400 79 84 153 131 265 169 99 34 121 35 128 6z m61
-658 c155 -23 293 -94 392 -204 l55 -61 -28 -19 c-57 -39 -169 -163 -200 -222
-54 -102 -76 -202 -70 -319 6 -128 33 -212 98 -310 53 -79 148 -164 227 -204
49 -25 50 -17 -5 -151 -99 -242 -302 -509 -438 -576 -52 -25 -71 -29 -145 -29
-76 0 -96 5 -190 42 -205 82 -300 84 -500 8 -97 -37 -142 -49 -203 -53 -71 -4
-82 -2 -140 26 -128 63 -295 269 -417 512 -67 134 -111 254 -146 405 -26 111
-29 136 -29 320 0 220 10 279 75 421 106 234 324 392 567 411 93 8 164 -7 329
-68 74 -27 150 -49 169 -49 19 0 97 23 173 51 210 77 283 89 426 69z"/>
</g>
</svg>
