<?xml version="1.0" standalone="no"?>
<!DOCTYPE svg PUBLIC "-//W3C//DTD SVG 20010904//EN"
 "http://www.w3.org/TR/2001/REC-SVG-20010904/DTD/svg10.dtd">
<svg version="1.0" xmlns="http://www.w3.org/2000/svg"
 width="570.000000pt" height="335.000000pt" viewBox="0 0 570.000000 335.000000"
 preserveAspectRatio="xMidYMid meet">

<g transform="translate(0.000000,335.000000) scale(0.100000,-0.100000)"
fill="#000000" stroke="none">
<path d="M2460 2225 c0 -228 1 -235 20 -235 19 0 20 7 20 159 0 88 3 167 6
176 7 17 13 5 102 -217 46 -117 47 -118 80 -118 25 0 35 6 42 23 6 14 9 -37 9
-150 l1 -173 25 0 25 0 0 170 c0 94 4 170 9 170 4 0 17 -24 28 -52 11 -29 42
-106 68 -170 47 -116 48 -118 80 -118 l31 0 69 170 c37 94 72 170 76 170 5 0
9 -76 9 -170 l0 -170 25 0 25 0 0 236 0 235 -37 -3 c-41 -3 -29 19 -138 -263
-25 -65 -49 -123 -52 -128 -8 -13 -18 8 -59 112 -38 96 -41 111 -19 111 13 0
15 33 15 235 l0 235 -34 0 -34 0 -77 -195 c-43 -108 -81 -197 -85 -200 -4 -2
-22 32 -39 78 -129 329 -123 317 -158 317 l-33 0 0 -235z m409 -42 l-1 -148
-24 50 c-13 28 -24 56 -24 63 0 6 -7 12 -15 12 -19 0 -20 -3 13 77 28 70 40
93 48 93 2 0 4 -66 3 -147z"/>
<path d="M3506 2022 c-2 -4 -13 -44 -24 -88 -59 -234 -254 -427 -488 -482 -77
-18 -79 -20 -82 -50 -4 -39 10 -41 113 -13 216 57 371 184 473 387 33 66 76
218 68 240 -6 15 -51 19 -60 6z"/>
<path d="M2120 1978 c34 -202 158 -386 335 -499 76 -49 207 -98 263 -99 9 0
12 10 10 26 -3 24 -12 30 -88 54 -102 33 -155 62 -233 129 -110 93 -198 238
-219 363 -12 67 -12 68 -43 68 -32 0 -32 0 -25 -42z"/>
<path d="M3380 1000 c0 -55 -3 -100 -7 -100 -3 0 -14 7 -23 15 -49 44 -151 20
-176 -41 -56 -135 57 -255 169 -180 35 24 36 24 42 5 18 -56 25 -2 25 191 0
180 -2 210 -15 210 -12 0 -15 -18 -15 -100z m-39 -103 c34 -26 51 -104 33
-152 -9 -23 -57 -45 -99 -45 -43 0 -71 26 -81 74 -8 44 -1 75 27 109 16 22 29
27 62 27 23 0 49 -6 58 -13z"/>
<path d="M4237 1094 c-4 -4 -7 -99 -7 -211 0 -197 1 -203 20 -203 20 0 20 5
18 207 -3 194 -8 230 -31 207z"/>
<path d="M3514 1056 c-8 -22 3 -49 19 -43 6 2 12 14 12 27 0 27 -22 39 -31 16z"/>
<path d="M1380 870 c0 -162 2 -190 15 -190 13 0 15 22 15 135 0 74 4 135 8
135 4 0 33 -61 63 -135 49 -123 56 -135 79 -135 23 0 30 12 80 135 30 74 58
135 63 135 4 0 7 -61 7 -135 0 -113 2 -135 15 -135 13 0 15 28 15 191 l0 190
-22 -3 c-19 -2 -33 -29 -87 -165 -35 -89 -67 -160 -71 -158 -5 3 -36 77 -71
165 -56 143 -65 160 -86 160 l-23 0 0 -190z"/>
<path d="M1893 978 c35 -46 67 -89 71 -96 7 -12 -9 -36 -127 -189 -7 -9 -4
-13 10 -13 11 0 42 30 82 80 34 44 66 78 70 76 4 -3 34 -39 67 -80 33 -44 66
-76 76 -76 10 0 18 2 18 4 0 3 -28 40 -61 83 -34 43 -66 84 -72 91 -7 8 9 36
53 95 35 45 68 88 73 95 7 9 4 12 -11 12 -13 0 -37 -23 -71 -69 -77 -104 -70
-103 -137 -12 -44 60 -65 80 -82 81 -21 0 -17 -8 41 -82z"/>
<path d="M2390 870 c0 -183 1 -190 20 -190 19 0 20 7 20 137 0 165 4 164 75
-14 45 -113 51 -123 74 -123 24 0 30 11 81 136 30 75 58 138 62 140 5 3 8 -58
8 -135 0 -119 2 -141 15 -141 13 0 15 28 15 191 l0 190 -22 -3 c-19 -2 -33
-27 -83 -155 -33 -84 -65 -157 -71 -163 -6 -6 -31 45 -74 155 -62 158 -66 165
-92 165 l-28 0 0 -190z"/>
<path d="M2943 933 c-37 -7 -81 -56 -89 -98 -15 -83 45 -165 123 -165 41 0
103 25 103 41 0 7 -6 8 -17 3 -26 -11 -90 -17 -116 -10 -27 6 -57 54 -57 90 0
25 0 25 98 28 97 3 97 3 100 29 5 40 -34 79 -83 84 -22 2 -50 1 -62 -2z m99
-40 c38 -34 23 -43 -67 -43 -82 0 -85 1 -75 20 6 10 18 24 28 29 27 16 93 13
114 -6z"/>
<path d="M3699 925 c-45 -20 -69 -61 -69 -120 0 -58 22 -98 67 -119 42 -20 83
-20 129 -1 40 17 39 40 -2 25 -38 -15 -97 -12 -121 5 -49 34 -54 132 -8 175
22 21 31 22 90 17 58 -6 82 2 57 17 -24 14 -110 15 -143 1z"/>
<path d="M3971 931 c-14 -4 -26 -12 -28 -18 -3 -8 14 -10 57 -6 49 5 64 3 80
-12 37 -34 26 -52 -38 -59 -32 -4 -72 -15 -90 -26 -28 -17 -32 -25 -32 -64 0
-73 56 -96 135 -56 47 24 55 25 55 5 0 -8 5 -15 10 -15 13 0 13 195 0 220 -17
33 -90 48 -149 31z m129 -148 c-1 -48 -42 -83 -97 -83 -35 0 -53 16 -53 46 0
36 45 64 101 64 47 0 49 -1 49 -27z"/>
<path d="M3510 805 c0 -100 3 -125 14 -125 20 0 23 22 18 143 -3 82 -7 107
-18 107 -11 0 -14 -25 -14 -125z"/>
</g>
</svg>
